<?xml version="1.0" encoding="utf-8"?>
<!-- Generator: Adobe Illustrator 16.0.3, SVG Export Plug-In . SVG Version: 6.00 Build 0)  -->
<!DOCTYPE svg PUBLIC "-//W3C//DTD SVG 1.1//EN" "http://www.w3.org/Graphics/SVG/1.1/DTD/svg11.dtd">
<svg version="1.1" id="Layer_1" xmlns="http://www.w3.org/2000/svg" xmlns:xlink="http://www.w3.org/1999/xlink" x="0px" y="0px"
	 width="77px" height="48px" viewBox="0 0 77 48" enable-background="new 0 0 77 48" xml:space="preserve">
<path fill="#FFFFFF" d="M69.536,6.792H50.243V1.991h19.295v4.801H69.536z M37.399,26.48c1.245,1.932,1.867,4.277,1.867,7.031
	c0,2.848-0.701,5.402-2.128,7.659c-0.908,1.493-2.035,2.754-3.389,3.77c-1.525,1.174-3.331,1.979-5.407,2.41
	C26.259,47.782,24.005,48,21.577,48H0V0h23.138c5.833,0.095,9.967,1.788,12.409,5.112c1.465,2.039,2.191,4.486,2.191,7.33
	c0,2.935-0.734,5.282-2.214,7.066c-0.823,1-2.039,1.91-3.648,2.731C34.313,23.134,36.163,24.542,37.399,26.48z M11.049,18.924
	h10.138c2.083,0,3.768-0.396,5.065-1.19c1.296-0.792,1.943-2.199,1.943-4.22c0-2.232-0.856-3.715-2.574-4.428
	c-1.476-0.496-3.364-0.751-5.655-0.751h-8.917V18.924z M29.171,32.826c0-2.494-1.017-4.217-3.047-5.142
	c-1.136-0.525-2.737-0.794-4.791-0.813H11.049v12.792h10.125c2.08,0,3.689-0.272,4.852-0.842
	C28.121,37.774,29.171,35.783,29.171,32.826z M76.694,25.018c0.233,1.57,0.338,3.849,0.296,6.827H52.003
	c0.138,3.456,1.329,5.872,3.587,7.255c1.362,0.867,3.013,1.291,4.946,1.291c2.039,0,3.7-0.517,4.979-1.578
	c0.697-0.563,1.312-1.357,1.843-2.359h9.159c-0.24,2.041-1.342,4.11-3.324,6.214c-3.07,3.343-7.376,5.02-12.907,5.02
	c-4.568,0-8.595-1.414-12.09-4.231c-3.483-2.827-5.232-7.413-5.232-13.773c0-5.964,1.571-10.53,4.723-13.708
	c3.163-3.184,7.245-4.769,12.277-4.769c2.982,0,5.671,0.534,8.07,1.608c2.391,1.075,4.368,2.766,5.924,5.091
	C75.366,19.953,76.272,22.32,76.694,25.018z M67.68,25.913c-0.168-2.389-0.964-4.198-2.398-5.434
	c-1.422-1.239-3.199-1.861-5.318-1.861c-2.307,0-4.088,0.665-5.354,1.972c-1.274,1.304-2.067,3.078-2.393,5.323H67.68L67.68,25.913z
	"/>
</svg>
