<?xml version="1.0" encoding="utf-8"?>
<!-- Generator: Adobe Illustrator 16.0.3, SVG Export Plug-In . SVG Version: 6.00 Build 0)  -->
<!DOCTYPE svg PUBLIC "-//W3C//DTD SVG 1.1//EN" "http://www.w3.org/Graphics/SVG/1.1/DTD/svg11.dtd">
<svg version="1.1" id="Layer_1" xmlns="http://www.w3.org/2000/svg" xmlns:xlink="http://www.w3.org/1999/xlink" x="0px" y="0px"
	 width="80.003px" height="80.003px" viewBox="0 0 80.003 80.003" enable-background="new 0 0 80.003 80.003" xml:space="preserve">
<path fill-rule="evenodd" clip-rule="evenodd" fill="#FFFFFF" d="M40.001,80.003C17.945,80.003,0,62.059,0,40.001
	C0,17.945,17.945,0,40.001,0s40.001,17.945,40.001,40.001C80.003,62.059,62.058,80.003,40.001,80.003z M73.737,45.477
	c-1.169-0.369-10.576-3.174-21.283-1.46c4.469,12.28,6.288,22.282,6.638,24.361C66.757,63.194,72.214,54.984,73.737,45.477z
	 M53.348,71.505c-0.508-2.998-2.492-13.445-7.289-25.91c-0.075,0.025-0.15,0.05-0.226,0.076
	c-19.271,6.715-26.189,20.08-26.804,21.337c5.793,4.518,13.074,7.213,20.972,7.213C44.734,74.221,49.246,73.253,53.348,71.505z
	 M14.618,62.899c0.774-1.325,10.151-16.851,27.772-22.547c0.445-0.144,0.895-0.279,1.347-0.407
	c-0.858-1.941-1.792-3.884-2.771-5.798C23.904,39.253,7.346,39.04,5.852,39.01c-0.01,0.347-0.018,0.694-0.018,1.044
	C5.834,48.829,9.161,56.842,14.618,62.899z M6.556,33.056c1.528,0.02,15.605,0.082,31.587-4.163
	c-5.661-10.063-11.767-18.524-12.668-19.76C15.917,13.641,8.771,22.453,6.556,33.056z M31.995,6.836
	c0.944,1.265,7.15,9.715,12.749,20.002c12.149-4.554,17.292-11.467,17.907-12.342c-6.034-5.354-13.968-8.61-22.649-8.61
	C37.245,5.886,34.564,6.217,31.995,6.836z M66.449,18.447c-0.72,0.975-6.446,8.314-19.079,13.472
	c0.795,1.627,1.557,3.283,2.267,4.949c0.251,0.591,0.497,1.178,0.736,1.763c11.369-1.43,22.665,0.862,23.791,1.1
	C74.089,31.667,71.208,24.261,66.449,18.447z"/>
</svg>
