<?xml version="1.0" encoding="utf-8"?>
<!-- Generator: Adobe Illustrator 16.0.3, SVG Export Plug-In . SVG Version: 6.00 Build 0)  -->
<!DOCTYPE svg PUBLIC "-//W3C//DTD SVG 1.1//EN" "http://www.w3.org/Graphics/SVG/1.1/DTD/svg11.dtd">
<svg version="1.1" id="Layer_1" xmlns="http://www.w3.org/2000/svg" xmlns:xlink="http://www.w3.org/1999/xlink" x="0px" y="0px"
	 width="79.142px" height="76.476px" viewBox="0 0 79.142 76.476" enable-background="new 0 0 79.142 76.476" xml:space="preserve">
<path fill-rule="evenodd" clip-rule="evenodd" fill="#FFFFFF" d="M39.568,0C17.718,0,0,17.555,0,39.209
	c0,17.32,11.337,32.014,27.063,37.199c1.979,0.36,2.701-0.851,2.701-1.89c0-0.931-0.034-3.396-0.054-6.668
	c-11.007,2.369-13.33-5.255-13.33-5.255c-1.799-4.529-4.394-5.735-4.394-5.735c-3.593-2.433,0.272-2.383,0.272-2.383
	c3.971,0.277,6.061,4.04,6.061,4.04c3.53,5.991,9.261,4.261,11.516,3.258c0.359-2.534,1.382-4.261,2.512-5.241
	c-8.787-0.989-18.024-4.353-18.024-19.376c0-4.28,1.542-7.78,4.073-10.521c-0.407-0.992-1.765-4.978,0.388-10.374
	c0,0,3.323-1.056,10.882,4.019c3.156-0.87,6.542-1.307,9.907-1.321c3.36,0.014,6.746,0.452,9.906,1.321
	c7.555-5.075,10.871-4.019,10.871-4.019c2.159,5.396,0.801,9.382,0.394,10.374c2.536,2.741,4.067,6.24,4.067,10.521
	c0,15.061-9.251,18.375-18.067,19.346c1.421,1.21,2.687,3.603,2.687,7.26c0,5.241-0.049,9.47-0.049,10.755
	c0,1.048,0.713,2.268,2.721,1.885c15.71-5.195,27.038-19.88,27.038-37.195C79.142,17.555,61.423,0,39.568,0z"/>
</svg>
